<svg width="24" height="24" viewBox="0 0 24 24" fill="none" xmlns="http://www.w3.org/2000/svg">
<path d="M17 13L13 22C12.2044 22 11.4413 21.6839 10.8787 21.1213C10.3161 20.5587 10 19.7957 10 19V15H4.34C4.05009 15.0033 3.76294 14.9435 3.49843 14.8248C3.23392 14.7061 2.99839 14.5313 2.80814 14.3125C2.6179 14.0937 2.47749 13.8362 2.39666 13.5578C2.31583 13.2793 2.29649 12.9866 2.34 12.7L3.72 3.7C3.79232 3.2231 4.03457 2.7884 4.40209 2.476C4.76962 2.1636 5.23767 1.99455 5.72 2H17M17 13V2M17 13H19.67C20.236 13.01 20.7859 12.8119 21.2154 12.4432C21.6449 12.0745 21.9241 11.5609 22 11V4C21.9241 3.43906 21.6449 2.9255 21.2154 2.55682C20.7859 2.18814 20.236 1.98999 19.67 2H17" stroke="#D81400" stroke-width="2" stroke-linecap="round" stroke-linejoin="round"/>
</svg>
