<svg width="24" height="24" viewBox="0 0 24 24" fill="none" xmlns="http://www.w3.org/2000/svg">
<path fill-rule="evenodd" clip-rule="evenodd" d="M19.4405 4.55157C18.4697 3.58035 17.3165 2.81073 16.0471 2.28701C14.7777 1.7633 13.4172 1.49583 12.0441 1.5C6.28125 1.5 1.59 6.16782 1.58766 11.9063C1.58511 13.7335 2.06676 15.5288 2.98359 17.1094L1.5 22.5L7.04297 21.053C8.57729 21.8842 10.2948 22.3192 12.0398 22.3186H12.0441C17.8064 22.3186 22.4972 17.6503 22.5 11.9123C22.5035 10.5439 22.2348 9.18834 21.7095 7.92466C21.1843 6.66098 20.413 5.51438 19.4405 4.55157ZM12.0441 20.5622H12.0403C10.4847 20.5627 8.95739 20.1463 7.61719 19.3566L7.29984 19.1691L4.01063 20.0278L4.88859 16.8361L4.68188 16.508C3.81206 15.1309 3.35121 13.5351 3.35297 11.9063C3.35297 7.13766 7.25344 3.25781 12.0473 3.25781C14.347 3.25371 16.5542 4.16322 18.1833 5.78631C19.8125 7.4094 20.7302 9.61313 20.7347 11.9128C20.7328 16.6819 16.8342 20.5622 12.0441 20.5622ZM16.8108 14.0845C16.5497 13.9542 15.2639 13.3252 15.0258 13.2384C14.7877 13.1517 14.6119 13.1081 14.438 13.3688C14.2641 13.6294 13.763 14.2125 13.6106 14.3883C13.4583 14.5641 13.3059 14.5833 13.0448 14.453C12.7838 14.3227 11.9414 14.0484 10.9434 13.1625C10.1667 12.473 9.64266 11.6217 9.49031 11.3616C9.33797 11.1014 9.47391 10.9603 9.60469 10.8309C9.72234 10.7142 9.86578 10.5272 9.99656 10.3753C10.1273 10.2234 10.1709 10.1147 10.2577 9.94125C10.3444 9.76782 10.3013 9.61594 10.2361 9.4861C10.1709 9.35625 9.64828 8.0761 9.43078 7.55531C9.21844 7.04813 9.00328 7.11703 8.84297 7.10907C8.69063 7.10157 8.51484 7.09969 8.34188 7.09969C8.20965 7.10313 8.07955 7.1338 7.9597 7.18977C7.83985 7.24574 7.73283 7.32582 7.64531 7.425C7.40578 7.68563 6.73078 8.31563 6.73078 9.59438C6.73078 10.8731 7.66828 12.1106 7.79766 12.2841C7.92703 12.4575 9.63984 15.0839 12.2606 16.2103C12.7473 16.4187 13.2445 16.6015 13.7503 16.7578C14.3761 16.9556 14.9456 16.928 15.3956 16.8609C15.8977 16.7864 16.9425 16.2319 17.1595 15.6244C17.3766 15.0169 17.377 14.4966 17.3119 14.3883C17.2467 14.28 17.0723 14.2144 16.8108 14.0845Z" fill="white"/>
</svg>
