<svg width="25" height="25" viewBox="0 0 25 25" fill="none" xmlns="http://www.w3.org/2000/svg">
<g clip-path="url(#clip0_151_287)">
<path d="M21.1163 10.2039C21.1163 17.2039 12.1163 23.2039 12.1163 23.2039C12.1163 23.2039 3.1163 17.2039 3.1163 10.2039C3.1163 7.81694 4.06451 5.52775 5.75234 3.83993C7.44017 2.1521 9.72935 1.20389 12.1163 1.20389C14.5033 1.20389 16.7924 2.1521 18.4803 3.83993C20.1681 5.52775 21.1163 7.81694 21.1163 10.2039Z" stroke="white" stroke-width="2" stroke-linecap="round" stroke-linejoin="round"/>
<path d="M12.1163 13.2039C13.7732 13.2039 15.1163 11.8607 15.1163 10.2039C15.1163 8.54703 13.7732 7.20389 12.1163 7.20389C10.4594 7.20389 9.1163 8.54703 9.1163 10.2039C9.1163 11.8607 10.4594 13.2039 12.1163 13.2039Z" stroke="white" stroke-width="2" stroke-linecap="round" stroke-linejoin="round"/>
</g>
<defs>
<clipPath id="clip0_151_287">
<rect width="24" height="24" fill="white" transform="translate(0.116302 0.203888)"/>
</clipPath>
</defs>
</svg>
