<svg width="30" height="26" viewBox="0 0 30 26" fill="none" xmlns="http://www.w3.org/2000/svg">
<path d="M0 0V14.7963H4.28571V0H0ZM8.57143 0V14.7963C9.77143 14.7963 10.8429 15.1292 11.6571 15.832C12.4714 16.5348 16.5857 23.674 17.1429 24.6358C17.7 25.5975 18.8143 26.0784 19.9714 25.7825C21.0857 25.4866 21.6857 24.4508 21.3 23.4521C20.9571 22.4903 19.2857 17.5706 19.2857 16.6458C19.2857 15.721 20.2286 14.7963 21.4286 14.7963H27.8571C29.0571 14.7963 30 13.9825 30 12.9467C30 11.911 25.5857 1.14671 25.5857 1.14671C25.2429 0.480879 24.4714 0 23.5714 0L8.57143 0Z" fill="#D81400"/>
</svg>
