<svg width="30" height="28" viewBox="0 0 30 28" fill="none" xmlns="http://www.w3.org/2000/svg">
<rect width="29.3333" height="27.1515" rx="2" fill="#D81400"/>
<path fill-rule="evenodd" clip-rule="evenodd" d="M20.3504 8.30913C19.6089 7.62241 18.7279 7.07824 17.7582 6.70793C16.7885 6.33763 15.7493 6.14851 14.7004 6.15146C10.2982 6.15146 6.71462 9.45194 6.71283 13.5094C6.71089 14.8014 7.07882 16.0708 7.77917 17.1884L6.64587 20.9999L10.8801 19.9768C12.0521 20.5645 13.3642 20.8721 14.6971 20.8717H14.7004C19.1022 20.8717 22.6854 17.5709 22.6875 13.5137C22.6902 12.5461 22.485 11.5877 22.0837 10.6941C21.6825 9.80064 21.0933 8.98991 20.3504 8.30913ZM14.7004 19.6298H14.6975C13.5092 19.6301 12.3425 19.3357 11.3187 18.7773L11.0763 18.6447L8.56371 19.2519L9.23438 16.9952L9.07647 16.7632C8.41203 15.7894 8.05999 14.6611 8.06134 13.5094C8.06134 10.1377 11.0409 7.39436 14.7029 7.39436C16.4596 7.39146 18.1456 8.03455 19.3901 9.18218C20.6346 10.3298 21.3356 11.888 21.339 13.5141C21.3376 16.8861 18.3595 19.6298 14.7004 19.6298ZM18.3416 15.0496C18.1422 14.9575 17.16 14.5127 16.9781 14.4514C16.7962 14.3901 16.6619 14.3592 16.529 14.5435C16.3962 14.7278 16.0134 15.1401 15.897 15.2644C15.7807 15.3887 15.6643 15.4023 15.4649 15.3101C15.2654 15.218 14.6219 15.0241 13.8596 14.3977C13.2663 13.9101 12.866 13.3082 12.7496 13.1243C12.6332 12.9403 12.7371 12.8406 12.837 12.7491C12.9268 12.6666 13.0364 12.5343 13.1363 12.4269C13.2362 12.3195 13.2695 12.2427 13.3357 12.12C13.402 11.9974 13.3691 11.89 13.3193 11.7982C13.2695 11.7064 12.8703 10.8012 12.7041 10.433C12.5419 10.0744 12.3775 10.1231 12.2551 10.1175C12.1387 10.1122 12.0044 10.1108 11.8723 10.1108C11.7713 10.1133 11.6719 10.135 11.5804 10.1745C11.4888 10.2141 11.4071 10.2707 11.3402 10.3409C11.1572 10.5251 10.6416 10.9706 10.6416 11.8748C10.6416 12.7789 11.3578 13.6539 11.4566 13.7766C11.5554 13.8992 12.8638 15.7562 14.8658 16.5527C15.2375 16.7001 15.6174 16.8293 16.0038 16.9398C16.4818 17.0797 16.9168 17.0601 17.2606 17.0127C17.6441 16.96 18.4422 16.5679 18.608 16.1384C18.7738 15.7088 18.7742 15.341 18.7244 15.2644C18.6746 15.1878 18.5414 15.1414 18.3416 15.0496Z" fill="white"/>
</svg>
