<svg width="30" height="28" viewBox="0 0 30 28" fill="none" xmlns="http://www.w3.org/2000/svg">
<rect width="29.3333" height="27.1515" rx="2" fill="#D81400"/>
<g clip-path="url(#clip0_2203_1057)">
<path d="M16.9966 8.62626C17.7427 8.761 18.4284 9.09876 18.9659 9.59631C19.5035 10.0939 19.8684 10.7286 20.0139 11.4192M16.9966 5.79797C18.5467 5.95737 19.9922 6.59992 21.0958 7.6201C22.1993 8.64028 22.8953 9.97747 23.0695 11.4121M22.3056 17.0545V19.1758C22.3065 19.3727 22.2629 19.5676 22.1777 19.748C22.0924 19.9284 21.9674 20.0904 21.8107 20.2235C21.6539 20.3567 21.4688 20.458 21.2673 20.5211C21.0657 20.5842 20.8522 20.6076 20.6403 20.5899C18.2897 20.3535 16.0318 19.61 14.048 18.4192C12.2023 17.3336 10.6374 15.8852 9.46462 14.1768C8.17363 12.3322 7.37022 10.232 7.11948 8.04646C7.10039 7.85093 7.1255 7.65386 7.1932 7.46781C7.2609 7.28175 7.36971 7.11078 7.51271 6.96579C7.6557 6.82079 7.82975 6.70494 8.02377 6.62562C8.21778 6.54629 8.42752 6.50523 8.63962 6.50504H10.9313C11.302 6.50167 11.6614 6.62318 11.9425 6.84694C12.2236 7.07069 12.4072 7.38142 12.4591 7.72121C12.5558 8.40004 12.7352 9.06657 12.9938 9.70807C13.0966 9.96115 13.1188 10.2362 13.0579 10.5006C12.997 10.765 12.8554 11.0077 12.65 11.2L11.6799 12.098C12.7673 13.8682 14.3508 15.3338 16.2632 16.3404L17.2334 15.4424C17.4411 15.2523 17.7033 15.1213 17.9889 15.0649C18.2746 15.0085 18.5718 15.0291 18.8452 15.1242C19.5382 15.3636 20.2583 15.5297 20.9917 15.6192C21.3628 15.6676 21.7017 15.8406 21.9439 16.1053C22.1862 16.3699 22.3149 16.7078 22.3056 17.0545Z" stroke="white" stroke-width="1.5" stroke-linecap="round" stroke-linejoin="round"/>
</g>
<defs>
<clipPath id="clip0_2203_1057">
<rect width="18.3333" height="16.9697" fill="white" transform="translate(5.5 5.09088)"/>
</clipPath>
</defs>
</svg>
