<svg width="19" height="18" viewBox="0 0 19 18" fill="none" xmlns="http://www.w3.org/2000/svg">
<path fill-rule="evenodd" clip-rule="evenodd" d="M15.3504 3.30913C14.6089 2.62241 13.7279 2.07824 12.7582 1.70793C11.7885 1.33763 10.7493 1.14851 9.70037 1.15146C5.29822 1.15146 1.71462 4.45194 1.71283 8.50942C1.71089 9.80141 2.07882 11.0708 2.77917 12.1884L1.64587 15.9999L5.88009 14.9768C7.05214 15.5645 8.36415 15.8721 9.69714 15.8717H9.70037C14.1022 15.8717 17.6854 12.5709 17.6875 8.51373C17.6902 7.54611 17.485 6.58766 17.0837 5.69415C16.6825 4.80064 16.0933 3.98991 15.3504 3.30913ZM9.70037 14.6298H9.6975C8.50919 14.6301 7.34249 14.3357 6.31873 13.7773L6.07631 13.6447L3.56371 14.2519L4.23438 11.9952L4.07647 11.7632C3.41203 10.7894 3.05999 9.6611 3.06134 8.50942C3.06134 5.13768 6.04086 2.39436 9.70287 2.39436C11.4596 2.39146 13.1456 3.03455 14.3901 4.18218C15.6346 5.32982 16.3356 6.88802 16.339 8.51406C16.3376 11.8861 13.3595 14.6298 9.70037 14.6298ZM13.3416 10.0496C13.1422 9.95748 12.16 9.51268 11.9781 9.45137C11.7962 9.39005 11.6619 9.35923 11.529 9.54351C11.3962 9.72779 11.0134 10.1401 10.897 10.2644C10.7807 10.3887 10.6643 10.4023 10.4649 10.3101C10.2654 10.218 9.62195 10.0241 8.85961 9.39767C8.26628 8.91013 7.86596 8.30823 7.74958 8.12428C7.63321 7.94034 7.73705 7.84057 7.83695 7.74909C7.92683 7.66657 8.0364 7.53432 8.1363 7.42694C8.23621 7.31955 8.26951 7.24266 8.33575 7.12002C8.40199 6.99739 8.36905 6.89 8.31928 6.7982C8.26951 6.70639 7.87026 5.80123 7.70411 5.433C7.5419 5.07438 7.37755 5.1231 7.25509 5.11747C7.13871 5.11216 7.00444 5.11084 6.87231 5.11084C6.7713 5.11327 6.67192 5.13495 6.58036 5.17453C6.48881 5.21411 6.40706 5.27073 6.34021 5.34086C6.15723 5.52514 5.64161 5.97059 5.64161 6.87476C5.64161 7.77892 6.35776 8.65392 6.45658 8.77656C6.55541 8.89919 7.86381 10.7562 9.8658 11.5527C10.2375 11.7001 10.6174 11.8293 11.0038 11.9398C11.4818 12.0797 11.9168 12.0601 12.2606 12.0127C12.6441 11.96 13.4422 11.5679 13.608 11.1384C13.7738 10.7088 13.7742 10.341 13.7244 10.2644C13.6746 10.1878 13.5414 10.1414 13.3416 10.0496Z" fill="white"/>
</svg>
