<svg width="19" height="18" viewBox="0 0 19 18" fill="none" xmlns="http://www.w3.org/2000/svg">
<g clip-path="url(#clip0_2203_1034)">
<path d="M11.9966 3.62626C12.7427 3.761 13.4284 4.09876 13.9659 4.59631C14.5035 5.09386 14.8684 5.72856 15.0139 6.41919M11.9966 0.797974C13.5467 0.957373 14.9922 1.59992 16.0958 2.6201C17.1993 3.64028 17.8953 4.97747 18.0695 6.41211M17.3056 12.0545V14.1758C17.3065 14.3727 17.2629 14.5676 17.1777 14.748C17.0924 14.9284 16.9674 15.0904 16.8107 15.2235C16.6539 15.3567 16.4688 15.458 16.2673 15.5211C16.0657 15.5842 15.8522 15.6076 15.6403 15.5899C13.2897 15.3535 11.0318 14.61 9.04795 13.4192C7.20227 12.3336 5.63745 10.8852 4.46462 9.17676C3.17363 7.33216 2.37022 5.23201 2.11948 3.04646C2.10039 2.85093 2.1255 2.65386 2.1932 2.46781C2.2609 2.28175 2.36971 2.11078 2.51271 1.96579C2.6557 1.82079 2.82975 1.70494 3.02377 1.62562C3.21778 1.54629 3.42752 1.50523 3.63962 1.50504H5.93129C6.30201 1.50167 6.66141 1.62318 6.94249 1.84694C7.22358 2.07069 7.40718 2.38142 7.45907 2.72121C7.55579 3.40004 7.73517 4.06657 7.99379 4.70807C8.09656 4.96115 8.11881 5.2362 8.05788 5.50062C7.99696 5.76504 7.85542 6.00775 7.65004 6.19999L6.6799 7.09797C7.76734 8.86816 9.3508 10.3338 11.2632 11.3404L12.2334 10.4424C12.4411 10.2523 12.7033 10.1213 12.9889 10.0649C13.2746 10.0085 13.5718 10.0291 13.8452 10.1242C14.5382 10.3636 15.2583 10.5297 15.9917 10.6192C16.3628 10.6676 16.7017 10.8406 16.9439 11.1053C17.1862 11.3699 17.3149 11.7078 17.3056 12.0545Z" stroke="white" stroke-width="1.5" stroke-linecap="round" stroke-linejoin="round"/>
</g>
<defs>
<clipPath id="clip0_2203_1034">
<rect width="18.3333" height="16.9697" fill="white" transform="translate(0.5 0.0908813)"/>
</clipPath>
</defs>
</svg>
