<svg width="145" height="114" viewBox="0 0 145 114" fill="none" xmlns="http://www.w3.org/2000/svg">
<g clip-path="url(#clip0_2203_900)">
<path d="M131.528 103.564C128.758 106.53 125.584 109.091 122.1 111.171C122.02 111.22 121.939 111.266 121.857 111.314L116.216 106.321C116.276 106.266 116.341 106.204 116.412 106.137C120.615 102.146 141.48 74.2417 142.871 67.4466C142.775 68.0127 144.125 90.2128 131.528 103.564Z" fill="#F0F0F0"/>
<path d="M123.188 112.134C123.082 112.16 122.973 112.183 122.864 112.205L118.632 108.46C118.715 108.431 118.812 108.397 118.922 108.358C120.738 107.716 126.146 105.775 131.528 103.564C137.31 101.188 143.065 98.5027 144.303 96.7828C144.038 97.1824 135.859 109.301 123.188 112.134Z" fill="#F0F0F0"/>
<path d="M131.45 29.7112H130.847V13.2018C130.847 11.947 130.6 10.7044 130.12 9.54514C129.64 8.38584 128.936 7.33248 128.048 6.4452C127.161 5.55791 126.108 4.85407 124.948 4.37388C123.789 3.89368 122.547 3.64653 121.292 3.64653H86.3143C85.0595 3.64653 83.8169 3.89368 82.6576 4.37387C81.4984 4.85406 80.445 5.55789 79.5577 6.44518C78.6704 7.33246 77.9666 8.38582 77.4864 9.54511C77.0062 10.7044 76.759 11.9469 76.759 13.2017V103.774C76.759 105.029 77.0062 106.271 77.4864 107.431C77.9666 108.59 78.6704 109.643 79.5577 110.531C80.445 111.418 81.4983 112.122 82.6576 112.602C83.8169 113.082 85.0594 113.329 86.3142 113.329H121.292C122.547 113.329 123.789 113.082 124.948 112.602C126.108 112.122 127.161 111.418 128.048 110.531C128.936 109.643 129.639 108.59 130.12 107.431C130.6 106.271 130.847 105.029 130.847 103.774V41.4629H131.45V29.7112Z" fill="#3F3D56"/>
<path d="M128.813 13.2674V103.708C128.813 104.645 128.628 105.573 128.27 106.439C127.911 107.304 127.385 108.091 126.723 108.753C126.06 109.416 125.273 109.941 124.407 110.3C123.541 110.658 122.613 110.842 121.676 110.842H86.5303C85.5934 110.842 84.6657 110.658 83.8001 110.299C82.9345 109.941 82.1479 109.415 81.4854 108.753C80.823 108.09 80.2974 107.304 79.9389 106.438C79.5804 105.572 79.3959 104.645 79.396 103.708V13.2674C79.3959 12.3305 79.5804 11.4028 79.9389 10.5371C80.2974 9.67155 80.823 8.88504 81.4854 8.22255C82.1479 7.56006 82.9345 7.03456 83.8001 6.67605C84.6657 6.31755 85.5934 6.13306 86.5303 6.13313H90.7954C90.5861 6.64792 90.5064 7.20627 90.5635 7.75907C90.6205 8.31187 90.8125 8.84217 91.1226 9.30336C91.4327 9.76454 91.8514 10.1425 92.3418 10.4039C92.8322 10.6653 93.3793 10.8022 93.935 10.8026H113.973C114.529 10.8031 115.076 10.6668 115.567 10.4056C116.058 10.1444 116.477 9.76644 116.788 9.305C117.098 8.84355 117.29 8.31283 117.346 7.75967C117.403 7.2065 117.323 6.64789 117.112 6.13313H121.676C122.613 6.13279 123.541 6.31708 124.407 6.67546C125.273 7.03383 126.06 7.55929 126.723 8.2218C127.385 8.88431 127.911 9.6709 128.27 10.5366C128.628 11.4024 128.813 12.3303 128.813 13.2674V13.2674Z" fill="white"/>
<path d="M117.88 60.265H86.9882C86.4471 60.2644 85.9284 60.0492 85.5458 59.6666C85.1631 59.284 84.9479 58.7653 84.9473 58.2242V57.2083C84.9479 56.6672 85.1631 56.1485 85.5458 55.7659C85.9284 55.3832 86.4471 55.168 86.9882 55.1674H117.88C118.422 55.168 118.94 55.3832 119.323 55.7659C119.705 56.1485 119.921 56.6672 119.921 57.2083V58.2242C119.921 58.7653 119.705 59.284 119.323 59.6666C118.94 60.0492 118.422 60.2644 117.88 60.265Z" fill="#F0F0F0"/>
<path d="M117.88 69.0219H86.9882C86.4471 69.0213 85.9284 68.8061 85.5458 68.4235C85.1631 68.0409 84.9479 67.5221 84.9473 66.981V65.9652C84.9479 65.4241 85.1631 64.9053 85.5458 64.5227C85.9284 64.1401 86.4471 63.9249 86.9882 63.9243H117.88C118.422 63.9249 118.94 64.1401 119.323 64.5227C119.705 64.9053 119.921 65.4241 119.921 65.9652V66.981C119.921 67.5221 119.705 68.0409 119.323 68.4235C118.94 68.8061 118.422 69.0213 117.88 69.0219V69.0219Z" fill="#F0F0F0"/>
<path d="M119.426 58.3066H88.5336C87.9654 58.306 87.4207 58.08 87.019 57.6782C86.6172 57.2765 86.3913 56.7318 86.3906 56.1637V55.1478C86.3913 54.5797 86.6172 54.035 87.019 53.6332C87.4207 53.2315 87.9654 53.0055 88.5336 53.0049H119.426C119.994 53.0055 120.539 53.2315 120.94 53.6332C121.342 54.035 121.568 54.5797 121.569 55.1478V56.1637C121.568 56.7318 121.342 57.2765 120.94 57.6782C120.539 58.08 119.994 58.306 119.426 58.3066V58.3066ZM88.5336 53.4131C88.0736 53.4136 87.6327 53.5965 87.3075 53.9217C86.9822 54.2469 86.7993 54.6879 86.7988 55.1478V56.1637C86.7993 56.6236 86.9822 57.0645 87.3075 57.3898C87.6327 57.715 88.0736 57.8979 88.5336 57.8984H119.426C119.886 57.8979 120.327 57.715 120.652 57.3898C120.977 57.0645 121.16 56.6236 121.161 56.1637V55.1478C121.16 54.6879 120.977 54.2469 120.652 53.9217C120.327 53.5965 119.886 53.4136 119.426 53.4131H88.5336Z" fill="#3F3D56"/>
<path d="M119.426 67.0635H88.5336C87.9654 67.0628 87.4207 66.8368 87.019 66.4351C86.6172 66.0334 86.3913 65.4887 86.3906 64.9205V63.9047C86.3913 63.3365 86.6172 62.7919 87.019 62.3901C87.4207 61.9884 87.9654 61.7624 88.5336 61.7617H119.426C119.994 61.7624 120.539 61.9884 120.94 62.3901C121.342 62.7919 121.568 63.3365 121.569 63.9047V64.9205C121.568 65.4887 121.342 66.0334 120.94 66.4351C120.539 66.8368 119.994 67.0628 119.426 67.0635V67.0635ZM88.5336 62.1699C88.0736 62.1704 87.6327 62.3534 87.3075 62.6786C86.9822 63.0038 86.7993 63.4448 86.7988 63.9047V64.9205C86.7993 65.3805 86.9822 65.8214 87.3075 66.1466C87.6327 66.4718 88.0736 66.6548 88.5336 66.6553H119.426C119.886 66.6548 120.327 66.4718 120.652 66.1466C120.977 65.8214 121.16 65.3805 121.161 64.9205V63.9047C121.16 63.4448 120.977 63.0038 120.652 62.6786C120.327 62.3534 119.886 62.1704 119.426 62.1699H88.5336Z" fill="#3F3D56"/>
<path d="M128.813 13.2674V32.9394C125.687 33.7618 122.415 33.8562 119.247 33.2152C116.079 32.5743 113.1 31.2152 110.539 29.2425C107.979 27.2697 105.905 24.736 104.478 21.8361C103.051 18.9362 102.307 15.7475 102.306 12.5154C102.306 11.9384 102.329 11.3675 102.375 10.8026H113.973C114.529 10.8031 115.076 10.6668 115.567 10.4056C116.058 10.1444 116.477 9.76645 116.788 9.305C117.098 8.84355 117.29 8.31283 117.346 7.75967C117.403 7.2065 117.323 6.64789 117.112 6.13313H121.676C122.613 6.13279 123.541 6.31708 124.407 6.67546C125.273 7.03383 126.06 7.55929 126.723 8.2218C127.385 8.88431 127.911 9.6709 128.27 10.5366C128.629 11.4024 128.813 12.3303 128.813 13.2674V13.2674Z" fill="#F0F0F0"/>
<path d="M97.1545 109.613C97.1545 110.028 97.139 110.438 97.1055 110.842H86.5303C85.5934 110.842 84.6657 110.658 83.8001 110.299C82.9345 109.941 82.1479 109.415 81.4854 108.753C80.823 108.09 80.2974 107.304 79.9389 106.438C79.5804 105.572 79.3959 104.645 79.396 103.708V94.034C81.6127 93.7457 83.8654 93.9332 86.004 94.584C88.1425 95.2347 90.1178 96.3339 91.7982 97.808C93.4786 99.2822 94.8254 101.098 95.749 103.133C96.6726 105.169 97.1517 107.378 97.1544 109.613H97.1545Z" fill="#D81400"/>
<path d="M11.8619 92.6396C12.159 92.7703 12.4959 92.7778 12.7986 92.6604C13.1012 92.5431 13.345 92.3105 13.4764 92.0137L23.0031 70.4223C23.2212 69.9282 23.2878 69.3806 23.1946 68.8486C23.1014 68.3166 22.8525 67.8243 22.4794 67.4337C22.1063 67.0432 21.6258 66.7721 21.0987 66.6547C20.5715 66.5373 20.0214 66.5788 19.5178 66.7741H19.5178C18.9361 66.9962 18.4492 67.4131 18.1402 67.9537C18.091 68.0393 18.0464 68.1274 18.0066 68.2176L8.47991 89.809C8.41498 89.9561 8.37967 90.1146 8.37599 90.2753C8.37231 90.4361 8.40034 90.596 8.45847 90.746C8.51661 90.8959 8.60371 91.0329 8.7148 91.1492C8.82589 91.2655 8.95879 91.3587 9.10593 91.4236L11.8619 92.6396Z" fill="#D81400"/>
<path d="M22.612 79.2865L13.1889 77.1924L15.5212 71.0225C15.9185 69.5144 16.8432 68.1987 18.1275 67.314C19.4118 66.4293 20.9706 66.0341 22.5213 66.2003L22.612 66.2103L22.612 79.2865Z" fill="#F7C933"/>
<path d="M41.6453 92.9484C41.3682 92.948 41.0971 92.8672 40.8648 92.7159C40.6326 92.5646 40.4492 92.3493 40.3367 92.096L30.81 70.5047C30.5071 69.8177 30.4789 69.0407 30.7313 68.3336C30.9838 67.6265 31.4976 67.043 32.1672 66.7032C32.8367 66.3634 33.611 66.2931 34.3308 66.5068C35.0505 66.7205 35.661 67.202 36.0366 67.8521V67.852C36.0894 67.9438 36.1373 68.0384 36.18 68.1353L45.7067 89.7267C45.8597 90.0733 45.8686 90.4665 45.7317 90.8198C45.5947 91.1731 45.323 91.4574 44.9764 91.6104L42.127 92.8675L42.1256 92.8643C41.9715 92.9199 41.809 92.9483 41.6453 92.9484V92.9484Z" fill="#D81400"/>
<path d="M28.4674 85.5341C28.1427 85.5344 27.8315 85.6636 27.6019 85.8931C27.3723 86.1227 27.2432 86.4339 27.2429 86.7586V111.864C27.2432 112.189 27.3723 112.5 27.6019 112.73C27.8315 112.959 28.1427 113.089 28.4674 113.089H31.4796C31.8043 113.089 32.1156 112.959 32.3451 112.73C32.5747 112.5 32.7038 112.189 32.7042 111.864V86.7586C32.7038 86.4339 32.5747 86.1227 32.3451 85.8931C32.1156 85.6636 31.8043 85.5344 31.4796 85.5341H28.4674Z" fill="#D81400"/>
<path d="M22.5096 85.5341C22.1849 85.5344 21.8737 85.6636 21.6441 85.8931C21.4145 86.1227 21.2854 86.4339 21.285 86.7586V111.864C21.2854 112.189 21.4145 112.5 21.6441 112.73C21.8737 112.959 22.1849 113.089 22.5096 113.089H25.5219C25.8465 113.089 26.1578 112.959 26.3873 112.73C26.6169 112.5 26.746 112.189 26.7464 111.864V86.7586C26.746 86.4339 26.6169 86.1227 26.3873 85.8931C26.1578 85.6636 25.8465 85.5344 25.5219 85.5341H22.5096Z" fill="#D81400"/>
<path d="M26.9046 59.2314C32.6531 59.2314 37.3131 54.5713 37.3131 48.8229C37.3131 43.0744 32.6531 38.4144 26.9046 38.4144C21.1561 38.4144 16.4961 43.0744 16.4961 48.8229C16.4961 54.5713 21.1561 59.2314 26.9046 59.2314Z" fill="#D81400"/>
<path d="M30.3683 53.1922C31.043 53.1735 31.8827 53.15 32.5296 52.6775C32.7223 52.531 32.8805 52.3442 32.9934 52.1301C33.1062 51.916 33.1708 51.6798 33.1827 51.4381C33.1944 51.2663 33.1663 51.0942 33.1004 50.9351C33.0345 50.776 32.9328 50.6343 32.8031 50.5211C32.4652 50.2356 31.9718 50.1686 31.4401 50.3249L31.991 46.2991L31.5866 46.2437L30.939 50.9765L31.2767 50.8216C31.6682 50.642 32.2056 50.5506 32.5396 50.8328C32.6216 50.9066 32.6855 50.9983 32.7263 51.1008C32.7671 51.2033 32.7837 51.3138 32.7748 51.4238C32.7649 51.6036 32.7164 51.7793 32.6325 51.9388C32.5487 52.0982 32.4315 52.2377 32.2889 52.3478C31.7854 52.7156 31.1161 52.763 30.357 52.7842L30.3683 53.1922Z" fill="#2F2E41"/>
<path d="M36.1893 46.6463H33.9909V47.0545H36.1893V46.6463Z" fill="#2F2E41"/>
<path d="M29.2502 46.6463H27.0519V47.0545H29.2502V46.6463Z" fill="#2F2E41"/>
<path d="M37.2179 93.0752L33.4717 65.7273C33.4315 65.4341 33.2865 65.1653 33.0634 64.9708C32.8404 64.7762 32.5544 64.669 32.2584 64.669H29.4307C29.4425 64.6016 29.4486 64.5333 29.449 64.4649V63.4445C29.449 63.1197 29.32 62.8083 29.0903 62.5786C28.8607 62.349 28.5492 62.2199 28.2245 62.2199H25.7754C25.4507 62.2199 25.1392 62.349 24.9096 62.5786C24.6799 62.8083 24.5509 63.1197 24.5509 63.4445V64.4649C24.5513 64.5333 24.5574 64.6016 24.5692 64.669H21.7415C21.4455 64.669 21.1595 64.7762 20.9365 64.9708C20.7134 65.1653 20.5684 65.4341 20.5282 65.7273L16.782 93.0752C16.7582 93.2484 16.7719 93.4247 16.822 93.5922C16.8721 93.7598 16.9574 93.9146 17.0724 94.0464C17.1873 94.1781 17.3291 94.2837 17.4883 94.3561C17.6475 94.4285 17.8203 94.4659 17.9951 94.4659H36.0047C36.1796 94.4659 36.3524 94.4285 36.5116 94.3561C36.6707 94.2837 36.8126 94.1781 36.9275 94.0464C37.0424 93.9146 37.1278 93.7598 37.1779 93.5923C37.228 93.4247 37.2417 93.2484 37.2179 93.0752V93.0752Z" fill="#F7C933"/>
<path d="M31.3879 79.2866V66.2103L31.4787 66.2003C33.0312 66.0343 34.5918 66.4307 35.8769 67.3175C37.162 68.2043 38.0863 69.5227 38.482 71.0331L40.811 77.1925L31.3879 79.2866Z" fill="#F7C933"/>
<path d="M26.3805 59.5562L19.1812 56.7618C18.0039 56.3049 16.8201 55.8619 15.6491 55.3892C15.1475 55.2144 14.6854 54.9421 14.2896 54.5879C13.9449 54.223 13.71 53.7685 13.6118 53.2762C13.3621 52.2208 13.4072 51.067 13.425 49.9899C13.4388 48.8117 13.5358 47.6359 13.7152 46.4713C14.0296 44.2828 14.7679 42.1767 15.8888 40.271C17.9078 36.9583 21.3864 34.466 25.3877 34.6649C27.2401 34.757 29.1032 35.4217 30.4795 36.6882C30.6231 36.8598 30.7842 37.0159 30.9602 37.154C31.0825 37.1999 31.2156 37.2089 31.343 37.1797C31.5109 37.1689 31.679 37.1607 31.8473 37.155C32.431 37.1304 33.0158 37.1549 33.5954 37.2283C34.6517 37.3424 35.6528 37.7581 36.4792 38.4258C37.167 39.0175 37.7267 39.8527 37.7843 40.7809C37.8121 41.2071 37.7416 41.6339 37.5783 42.0284C37.4151 42.423 37.1633 42.7748 36.8425 43.0566C35.9836 43.7805 34.7582 43.5261 33.7279 43.4715L29.9535 43.2716L28.0412 43.1702C27.6474 43.1494 27.6486 43.7617 28.0412 43.7825L33.124 44.0518C33.9408 44.0951 34.7826 44.2011 35.6001 44.1521C36.2282 44.1237 36.8279 43.8824 37.3008 43.468C37.7326 43.0713 38.0543 42.5694 38.2344 42.0114C38.4146 41.4534 38.447 40.8582 38.3287 40.2839C38.0666 39.0313 37.1344 37.9951 36.0415 37.3787C34.5545 36.5399 32.7786 36.4596 31.1147 36.5836L31.3312 36.6732C29.449 34.6531 26.566 33.8002 23.8594 34.0987C21.0017 34.4139 18.46 36.0081 16.6339 38.1881C14.5978 40.6187 13.4882 43.6495 13.0569 46.7659C12.8324 48.4486 12.7585 50.1479 12.8361 51.8436C12.8329 52.5915 12.9608 53.3341 13.2141 54.0378C13.5031 54.7226 14.0256 55.2828 14.6887 55.6187C15.4489 55.9857 16.2304 56.3067 17.0291 56.5801L19.6815 57.6096L24.8915 59.6318L26.2177 60.1466C26.5853 60.2893 26.7445 59.6975 26.3805 59.5562Z" fill="#2F2E41"/>
<path d="M15.0608 38.7498C14.4351 38.7498 13.8235 38.5642 13.3033 38.2166C12.7831 37.869 12.3776 37.375 12.1382 36.797C11.8988 36.2189 11.8361 35.5829 11.9582 34.9693C12.0802 34.3556 12.3815 33.792 12.8239 33.3496C13.2663 32.9071 13.83 32.6059 14.4436 32.4838C15.0573 32.3617 15.6933 32.4244 16.2713 32.6638C16.8494 32.9032 17.3434 33.3087 17.691 33.8289C18.0386 34.3491 18.2241 34.9607 18.2241 35.5864C18.2232 36.4251 17.8896 37.2292 17.2966 37.8222C16.7035 38.4152 15.8995 38.7488 15.0608 38.7498ZM15.0608 33.0353C14.5562 33.0353 14.063 33.1849 13.6435 33.4652C13.2239 33.7455 12.8969 34.144 12.7039 34.6101C12.5108 35.0763 12.4602 35.5892 12.5587 36.0841C12.6571 36.579 12.9001 37.0335 13.2569 37.3903C13.6136 37.7471 14.0682 37.9901 14.5631 38.0885C15.0579 38.1869 15.5709 38.1364 16.037 37.9433C16.5032 37.7502 16.9016 37.4232 17.1819 37.0037C17.4623 36.5842 17.6119 36.091 17.6119 35.5864C17.6111 34.91 17.3421 34.2616 16.8638 33.7833C16.3856 33.3051 15.7371 33.036 15.0608 33.0353V33.0353Z" fill="#2F2E41"/>
<path d="M67.9409 58.3535L61.094 53.1168L55.8573 59.9637L62.7042 65.2005L67.9409 58.3535Z" fill="#F0F0F0"/>
<path d="M29.2449 11.606C30.3267 11.6051 31.3937 11.8576 32.3604 12.3432C33.3272 12.8288 34.1667 13.5341 34.8119 14.4024L38.81 9.17496L26.8139 -1.52588e-05L17.639 11.9961L22.8092 15.9505C23.3267 14.6673 24.2158 13.568 25.3626 12.7939C26.5093 12.0197 27.8613 11.6061 29.2449 11.606V11.606Z" fill="#F0F0F0"/>
<path d="M144.291 113.446H0.204089C0.149961 113.446 0.09805 113.425 0.059776 113.386C0.021502 113.348 0 113.296 0 113.242C0 113.188 0.021502 113.136 0.059776 113.098C0.09805 113.059 0.149961 113.038 0.204089 113.038H144.291C144.345 113.038 144.397 113.059 144.435 113.098C144.473 113.136 144.495 113.188 144.495 113.242C144.495 113.296 144.473 113.348 144.435 113.386C144.397 113.425 144.345 113.446 144.291 113.446Z" fill="#3F3D56"/>
<path d="M108.707 79.0976H94.0409C93.4998 79.097 92.981 78.8818 92.5984 78.4992C92.2158 78.1166 92.0006 77.5978 92 77.0567V76.0409C92.0006 75.4998 92.2158 74.981 92.5984 74.5984C92.981 74.2158 93.4998 74.0006 94.0409 74H108.707C109.248 74.0006 109.767 74.2158 110.15 74.5984C110.532 74.981 110.747 75.4998 110.748 76.0409V77.0567C110.747 77.5978 110.532 78.1166 110.15 78.4992C109.767 78.8818 109.248 79.097 108.707 79.0976V79.0976Z" fill="#F7C933"/>
<path d="M110.669 77.6233H96.0027C95.4345 77.6226 94.8898 77.3966 94.4881 76.9949C94.0864 76.5932 93.8604 76.0485 93.8597 75.4803V74.4645C93.8604 73.8963 94.0864 73.3516 94.4881 72.9499C94.8898 72.5482 95.4345 72.3222 96.0027 72.3215H110.669C111.237 72.3222 111.782 72.5482 112.184 72.9499C112.585 73.3516 112.811 73.8963 112.812 74.4645V75.4803C112.811 76.0485 112.585 76.5932 112.184 76.9949C111.782 77.3966 111.237 77.6226 110.669 77.6233V77.6233ZM96.0027 72.7297C95.5427 72.7302 95.1018 72.9132 94.7766 73.2384C94.4514 73.5636 94.2684 74.0045 94.2679 74.4645V75.4803C94.2684 75.9402 94.4514 76.3812 94.7766 76.7064C95.1018 77.0316 95.5427 77.2146 96.0027 77.2151H110.669C111.129 77.2146 111.57 77.0316 111.895 76.7064C112.22 76.3812 112.403 75.9402 112.404 75.4803V74.4645C112.403 74.0045 112.22 73.5636 111.895 73.2384C111.57 72.9132 111.129 72.7302 110.669 72.7297H96.0027Z" fill="#3F3D56"/>
</g>
<defs>
<clipPath id="clip0_2203_900">
<rect width="144.495" height="113.446" fill="white"/>
</clipPath>
</defs>
</svg>
